<svg xmlns="http://www.w3.org/2000/svg" viewBox="0 0 512 512" width="512" height="512">
  <defs>
    <linearGradient id="devops-gradient" x1="0%" y1="0%" x2="100%" y2="100%">
      <stop offset="0%" style="stop-color:#00D9FF;stop-opacity:1" />
      <stop offset="50%" style="stop-color:#00A8FF;stop-opacity:1" />
      <stop offset="100%" style="stop-color:#0066FF;stop-opacity:1" />
    </linearGradient>
  </defs>
  <rect width="512" height="512" rx="100" fill="url(#devops-gradient)"/>
  <path fill="#FFFFFF" d="M256 128c-70.7 0-128 57.3-128 128s57.3 128 128 128 128-57.3 128-128-57.3-128-128-128zm0 224c-53 0-96-43-96-96s43-96 96-96 96 43 96 96-43 96-96 96z"/>
  <path fill="#FFFFFF" opacity="0.8" d="M200 256l56-56 56 56-56 56-56-56zm56-32l-24 24 24 24 24-24-24-24z"/>
  <circle fill="#FFFFFF" cx="192" cy="192" r="20" opacity="0.9"/>
  <circle fill="#FFFFFF" cx="320" cy="192" r="20" opacity="0.9"/>
  <circle fill="#FFFFFF" cx="192" cy="320" r="20" opacity="0.9"/>
  <circle fill="#FFFFFF" cx="320" cy="320" r="20" opacity="0.9"/>
  <path fill="#FFFFFF" opacity="0.7" d="M256 160v192M160 256h192"/>
</svg>

