<svg xmlns="http://www.w3.org/2000/svg" viewBox="0 0 512 512" width="512" height="512">
  <defs>
    <linearGradient id="k8s-gradient" x1="0%" y1="0%" x2="100%" y2="100%">
      <stop offset="0%" style="stop-color:#326CE5;stop-opacity:1" />
      <stop offset="100%" style="stop-color:#326CE5;stop-opacity:0.8" />
    </linearGradient>
  </defs>
  <path fill="url(#k8s-gradient)" d="M256 0C114.6 0 0 114.6 0 256s114.6 256 256 256 256-114.6 256-256S397.4 0 256 0zm0 480C132.5 480 32 379.5 32 256S132.5 32 256 32s224 100.5 224 224-100.5 224-224 224z"/>
  <path fill="#326CE5" d="M256 128c-70.7 0-128 57.3-128 128s57.3 128 128 128 128-57.3 128-128-57.3-128-128-128zm0 224c-53 0-96-43-96-96s43-96 96-96 96 43 96 96-43 96-96 96z"/>
  <path fill="#326CE5" d="M192 256c0-35.3 28.7-64 64-64s64 28.7 64 64-28.7 64-64 64-64-28.7-64-64zm64 32c17.7 0 32-14.3 32-32s-14.3-32-32-32-32 14.3-32 32 14.3 32 32 32z"/>
  <circle fill="#326CE5" cx="160" cy="192" r="16"/>
  <circle fill="#326CE5" cx="352" cy="192" r="16"/>
  <circle fill="#326CE5" cx="160" cy="320" r="16"/>
  <circle fill="#326CE5" cx="352" cy="320" r="16"/>
  <circle fill="#326CE5" cx="256" cy="160" r="16"/>
  <circle fill="#326CE5" cx="256" cy="352" r="16"/>
</svg>

